# xmcd
#
# Track frame offsets:
#	150
#	16817
#	34102
#	50469
#	65081
#	79374
#	94009
#	104556
#	119368
#	131293
#	147264
#	161765
#	177197
#	192561
#	208033
#	224054
#	242639
#	256371
#	277115
#	287495
#	301444
#	313933
#	327239
#	340843
#
# Disc length: 4773 seconds
#
# Revision: 1
# Processed by: cddbd v1.5.2PL0 Copyright (c) Steve Scherf et al.
# Submitted via: audiograbber 1.83.01
#
DISCID=7712a318
DTITLE=Diamond Back of Texas - Diamond Back of Texas 018
DYEAR=2007
DGENRE=Country
TTITLE0=An Old Flame  - Mitch Snow
TTITLE1=Never Been In Love Before  - William Ray
TTITLE2=Ahead Of The Changes - Bruce Greaves
TTITLE3=Heaven´s Gate  - Lenaye Pearson
TTITLE4=Ready To Fly  - Angela Hurt
TTITLE5=Daddy´s In Heaven  - Annie Harrison
TTITLE6=When She Smiles  - Raincheck
TTITLE7=Wendy Dawn  - James Bubba Hudson
TTITLE8=Once A Day  - Marilyn Mcconnell
TTITLE9=Christmas Time Is In The Air  - Bubba J 
TTITLE10=Walk Me Thru The Steps  - Suzie Merwine
TTITLE11=Always  - Adrian Flatley
TTITLE12=The Heat Of The Fire  - Kellie Wright 
TTITLE13=A Little Bit Of Hope - Raincheck
TTITLE14=Mystic Mississippi  - Mike Lusk
TTITLE15=With The Power Of The Word  - Bruce Greaves
TTITLE16=Since I Feel For You  - Stan Lawhon
TTITLE17=Where Does Love Go  - Juli Maners
TTITLE18=High Gear  - Steve Warren
TTITLE19=This Game Called Love - Donnie Elam
TTITLE20=My Little Trike  - Fraser Newcombe
TTITLE21=My Pretty China Girl  - Dave Besley
TTITLE22=Mark Twain  - Major Cow
TTITLE23=Sunshine Tapas And Beer  - Buddy Boland
EXTD=
EXTT0=
EXTT1=
EXTT2=
EXTT3=
EXTT4=
EXTT5=
EXTT6=
EXTT7=
EXTT8=
EXTT9=
EXTT10=
EXTT11=
EXTT12=
EXTT13=
EXTT14=
EXTT15=
EXTT16=
EXTT17=
EXTT18=
EXTT19=
EXTT20=
EXTT21=
EXTT22=
EXTT23=
PLAYORDER=
